<svg width="685" height="717" viewBox="0 0 685 717" fill="none" xmlns="http://www.w3.org/2000/svg">
<path d="M85.3932 199.497C38.6037 475.332 79.4565 490.412 175.924 614.975C272.392 739.539 394.349 762.014 502.891 614.975C611.434 467.936 641.116 482.463 603.435 211.138C565.753 -60.1864 132.183 -76.3391 85.3932 199.497Z" fill="#EDC99F"/>
<path d="M617.152 219.678C577.972 -62.6208 127.153 -79.4267 78.5018 207.566L0 166L61.5 331.5L102.946 448.499L336.446 331.5L569.947 448.499L617.152 331.5L685 166L617.152 219.678Z" fill="#0400F8"/>
<path d="M126.703 266.248L109.639 224.868L285.463 290.316L170.37 294.374C151.368 295.044 133.952 283.826 126.703 266.248Z" fill="white" stroke="black"/>
<mask id="mask0" mask-type="alpha" maskUnits="userSpaceOnUse" x="108" y="224" width="180" height="72">
<path d="M108.74 224C178.746 250.058 217.995 264.668 288 290.727L138.432 296L108.74 224Z" fill="white"/>
</mask>
<g mask="url(#mask0)">
<path d="M217.71 268.654C217.71 279.723 209.279 296.327 198.879 296.327C188.479 296.327 180.048 279.723 180.048 268.654C180.048 257.585 188.479 244 198.879 244C207.017 244 217.71 257.585 217.71 268.654Z" fill="black"/>
</g>
<path d="M548.297 266.248L565.361 224.868L389.537 290.316L504.63 294.374C523.632 295.044 541.048 283.826 548.297 266.248Z" fill="white" stroke="black"/>
<mask id="mask1" mask-type="alpha" maskUnits="userSpaceOnUse" x="387" y="224" width="180" height="72">
<path d="M566.26 224C496.254 250.058 457.005 264.668 387 290.727L536.568 296L566.26 224Z" fill="white"/>
</mask>
<g mask="url(#mask1)">
<path d="M457.29 268.654C457.29 279.723 465.721 296.327 476.121 296.327C486.521 296.327 494.952 279.723 494.952 268.654C494.952 257.585 486.521 244 476.121 244C467.983 244 457.29 257.585 457.29 268.654Z" fill="black"/>
</g>
<path d="M233.231 517.765C233.251 517.764 233.268 517.764 233.285 517.763C233.344 517.779 233.419 517.798 233.509 517.821C233.766 517.886 234.146 517.982 234.645 518.103C235.643 518.345 237.115 518.69 239.018 519.103C242.825 519.93 248.36 521.032 255.288 522.132C269.13 524.332 288.542 526.531 310.844 526.535C320.271 527.421 331.842 526.201 344.014 524.182C352.656 522.749 361.669 520.9 370.49 519.092C374.125 518.346 377.729 517.607 381.26 516.907C393.4 514.499 404.682 512.547 413.707 512.27C418.219 512.132 422.097 512.415 425.202 513.235C428.305 514.054 430.536 515.38 431.909 517.255C435.626 522.329 439.144 527.154 441.93 531.829C444.716 536.505 446.718 540.95 447.454 545.244C448.184 549.502 447.674 553.636 445.389 557.757C443.086 561.908 438.936 566.128 432.238 570.437C427.721 573.342 423.791 575.992 420.141 578.452C412.716 583.457 406.455 587.678 398.794 591.669C387.433 597.589 373.02 602.977 347.347 609.444C320.224 613.314 299.299 608.573 266.838 596.528C256.031 592.518 242.593 581.45 231.811 569.295C226.437 563.237 221.769 556.959 218.452 551.234C215.108 545.463 213.237 540.419 213.237 536.782C213.237 531.948 214.51 528.404 216.359 525.783C218.216 523.15 220.707 521.374 223.245 520.174C225.786 518.973 228.344 518.367 230.277 518.062C231.24 517.91 232.041 517.835 232.596 517.797C232.873 517.779 233.088 517.769 233.231 517.765Z" fill="white" stroke="black" stroke-width="2.47313"/>
<path d="M213.028 542.719C215.714 543.164 220.025 543.064 222.531 544.127C224.23 544.848 224.536 546.617 226 547.328C230.019 549.277 227.991 548.48 232.713 548.48C236.888 548.48 236.774 551.133 240.179 552.833C243.171 554.326 245.9 554.228 249.38 555.137C251.064 555.577 256.641 556.076 257.828 554.817C259.344 553.208 264.206 556.546 266.652 556.546C273.324 556.546 275.537 555.795 282.264 557.698" stroke="black" stroke-width="1.64875" stroke-linecap="round" stroke-linejoin="round"/>
<path d="M443.814 536.958C438.901 539.99 434.445 542.834 429.484 541.631C426.907 541.005 420.176 543.156 419.076 545.023C413.873 553.855 403.533 548.619 394.338 550.849C392.543 551.284 386.454 554.244 385.137 555.137C382.522 556.913 376.28 556.053 373.824 555.458C369.439 554.394 365.428 557.698 361.003 557.698C357.232 557.698 351.86 558.238 350.142 561.155" stroke="black" stroke-width="1.64875" stroke-linecap="round" stroke-linejoin="round"/>
<path d="M399 406.237C399 406.237 366.279 436.763 341 436.763C315.721 436.763 283 406.237 283 406.237" stroke="black" stroke-width="2.30292"/>
</svg>
