<svg width="65.5" height="27.5" viewBox="0 0 131 55" fill="none" xmlns="http://www.w3.org/2000/svg">
<path d="M88.3499 20.8963L86 21.4179V23.825V25.175V27.6831L88.4684 28.1275C89.5353 28.3196 90.8642 28.6131 92.2945 28.9331C92.4051 28.9578 92.5163 28.9827 92.6279 29.0077C93.9284 29.2989 95.2887 29.6035 96.4806 29.835C97.2723 29.9888 98.0994 30.2063 99.0799 30.4642C99.7751 30.647 100.547 30.8501 101.439 31.0651C103.392 31.5364 105.69 31.9955 107.947 31.9955C108.363 31.9955 108.798 31.9969 109.247 31.9983C112.624 32.0087 116.818 32.0216 119.615 31.487C122.023 31.0267 123.995 30.2601 125.438 29.1682C126.896 28.0659 128 26.4588 128 24.5C128 22.5412 126.896 20.9341 125.438 19.8318C123.995 18.7398 122.023 17.9733 119.615 17.513C116.818 16.9784 112.624 16.9913 109.247 17.0017C108.798 17.0031 108.363 17.0045 107.947 17.0045C104.791 17.0045 101.617 17.7584 99.2548 18.3195C98.5017 18.4984 97.8312 18.6577 97.27 18.7667C95.8867 19.0354 94.2283 19.4441 92.6633 19.8379C92.3936 19.9057 92.1267 19.9731 91.8637 20.0395C90.5605 20.3686 89.3511 20.6741 88.3499 20.8963Z" fill="#FFEA29" stroke="url(#paint0_radial)" stroke-width="6"/>
<path d="M78 35.2399V11.272C78 11.272 69.8864 1 46.5 1C23.1136 1 15 11.272 15 11.272V35.2399C15 35.2399 21.4432 46.0825 46.5 46.0825C71.5568 46.0825 78 35.2399 78 35.2399Z" fill="#0400F8" stroke="black"/>
<path d="M86.5909 11.272H78V35.8105H86.5909V23.5412V11.272Z" fill="#0400F8" stroke="black"/>
<path d="M34.3523 4.22321C37.49 3.65343 41.2874 3.24224 45.7614 3.21359V10.7731C41.2592 10.7931 37.4752 11.0822 34.3523 11.4924V4.22321ZM46.7614 10.7731V3.21359C51.2353 3.24224 55.0327 3.65343 58.1704 4.22321V11.4924C55.0475 11.0822 51.2635 10.7931 46.7614 10.7731ZM33.3523 4.41438V11.631C29.6436 12.1723 26.9503 12.876 25.1623 13.456C24.2619 13.748 23.5913 14.0086 23.1364 14.2012V7.84839C23.2411 7.78916 23.3813 7.71218 23.5573 7.6205C24.0052 7.38708 24.6848 7.05834 25.5998 6.68438C27.3316 5.97657 29.9073 5.1065 33.3523 4.41438ZM59.1704 11.631V4.41438C62.6154 5.1065 65.1911 5.97657 66.9229 6.68438C67.8379 7.05834 68.5175 7.38708 68.9655 7.6205C69.1414 7.71218 69.2816 7.78916 69.3864 7.84839V14.2012C68.9314 14.0086 68.2608 13.748 67.3604 13.456C65.5724 12.876 62.8791 12.1723 59.1704 11.631Z" fill="#FAFF00" stroke="black"/>
<path d="M104 14.167V19.6628C104 19.6628 99.9895 21.4955 92.1594 16.6159C84.3293 11.7362 73 10.3424 73 10.3424C85.1888 7.93293 95.9558 19.2064 104 14.167Z" fill="#F9B125"/>
<path d="M104 33.1497V30.5616C104 30.5616 96.3529 28.6048 86.6765 31.9964C77 35.3881 63 35.8602 63 35.8602C80.833 36.9949 92.2309 30.7765 104 33.1497Z" fill="#F98B25"/>
<defs>
<radialGradient id="paint0_radial" cx="0" cy="0" r="1" gradientUnits="userSpaceOnUse" gradientTransform="translate(69.2632 24.5525) scale(44.2105 122.876)">
<stop offset="0.78125" stop-color="#FFB800"/>
<stop offset="0.84375" stop-color="#FF6B00"/>
</radialGradient>
</defs>
</svg>
